<svg xmlns="http://www.w3.org/2000/svg" viewBox="0 0 512 512" role="img" aria-labelledby="title">
  <title id="title">JP Innovation</title>
  <defs>
    <linearGradient id="background" x1="0" y1="0" x2="1" y2="1">
      <stop offset="0" stop-color="#071523"/>
      <stop offset="1" stop-color="#020508"/>
    </linearGradient>
    <linearGradient id="blue" x1="0" y1="0" x2="1" y2="1">
      <stop offset="0" stop-color="#35a0ff"/>
      <stop offset="1" stop-color="#006fe6"/>
    </linearGradient>
  </defs>
  <rect width="512" height="512" rx="104" fill="url(#background)"/>
  <path d="M24 146C105 38 254 6 382 60c45 19 81 48 106 83v-39C488 60 452 24 408 24H104C60 24 24 60 24 104z" fill="#0c3156" opacity=".45"/>
  <rect x="28" y="28" width="456" height="456" rx="82" fill="none" stroke="#167fde" stroke-width="8" opacity=".55"/>
  <path d="M236 116v198c0 58-35 91-94 91-30 0-56-8-78-24l30-55c14 10 28 15 43 15 20 0 30-11 30-34V116z" fill="#f5f8fc"/>
  <path d="M270 116h88c64 0 101 34 101 91 0 58-37 92-101 92h-20v106h-68zm68 58v68h18c23 0 35-11 35-34 0-23-12-34-35-34z" fill="url(#blue)"/>
</svg>
